REM DIRINDEX 1\2,1\3
REM DIRNAME cjc039,folder01,folder02
TITLE ""
FILE "2101-2120.mp3" MP3
  TRACK 01 AUDIO
    TITLE "0:"
    INDEX 01 00:00:00
  TRACK 02 AUDIO
    TITLE "2:cjc039_3201"
    INDEX 01 00:00:25
  TRACK 03 AUDIO
    TITLE "0:"
    INDEX 01 00:01:48
  TRACK 04 AUDIO
    TITLE "3:cjc039_3202"
    INDEX 01 00:02:24
  TRACK 05 AUDIO
    TITLE "0:"
    INDEX 01 00:05:61
  TRACK 06 AUDIO
    TITLE "2:cjc039_3203"
    INDEX 01 00:07:37
  TRACK 07 AUDIO
    TITLE "0:"
    INDEX 01 00:08:66
  TRACK 08 AUDIO
    TITLE "3:cjc039_3204"
    INDEX 01 00:09:40
  TRACK 09 AUDIO
    TITLE "0:"
    INDEX 01 00:13:53
  TRACK 10 AUDIO
    TITLE "2:cjc039_3205"
    INDEX 01 00:15:30
  TRACK 11 AUDIO
    TITLE "0:"
    INDEX 01 00:16:44
  TRACK 12 AUDIO
    TITLE "3:cjc039_3206"
    INDEX 01 00:17:23
  TRACK 13 AUDIO
    TITLE "0:"
    INDEX 01 00:20:63
  TRACK 14 AUDIO
    TITLE "2:cjc039_3207"
    INDEX 01 00:22:38
  TRACK 15 AUDIO
    TITLE "0:"
    INDEX 01 00:23:59
  TRACK 16 AUDIO
    TITLE "3:cjc039_3208"
    INDEX 01 00:24:35
  TRACK 17 AUDIO
    TITLE "0:"
    INDEX 01 00:29:09
  TRACK 18 AUDIO
    TITLE "2:cjc039_3209"
    INDEX 01 00:30:61
  TRACK 19 AUDIO
    TITLE "0:"
    INDEX 01 00:32:05
  TRACK 20 AUDIO
    TITLE "3:cjc039_3210"
    INDEX 01 00:32:52
  TRACK 21 AUDIO
    TITLE "0:"
    INDEX 01 00:36:21
  TRACK 22 AUDIO
    TITLE "2:cjc039_3211"
    INDEX 01 00:37:65
  TRACK 23 AUDIO
    TITLE "0:"
    INDEX 01 00:39:21
  TRACK 24 AUDIO
    TITLE "3:cjc039_3212"
    INDEX 01 00:39:66
  TRACK 25 AUDIO
    TITLE "0:"
    INDEX 01 00:43:54
  TRACK 26 AUDIO
    TITLE "2:cjc039_3213"
    INDEX 01 00:45:33
  TRACK 27 AUDIO
    TITLE "0:"
    INDEX 01 00:46:56
  TRACK 28 AUDIO
    TITLE "3:cjc039_3214"
    INDEX 01 00:47:27
  TRACK 29 AUDIO
    TITLE "0:"
    INDEX 01 00:50:54
  TRACK 30 AUDIO
    TITLE "2:cjc039_3215"
    INDEX 01 00:52:28
  TRACK 31 AUDIO
    TITLE "0:"
    INDEX 01 00:53:35
  TRACK 32 AUDIO
    TITLE "3:cjc039_3216"
    INDEX 01 00:54:13
  TRACK 33 AUDIO
    TITLE "0:"
    INDEX 01 00:57:72
  TRACK 34 AUDIO
    TITLE "2:cjc039_3217"
    INDEX 01 00:59:49
  TRACK 35 AUDIO
    TITLE "0:"
    INDEX 01 01:01:03
  TRACK 36 AUDIO
    TITLE "3:cjc039_3218"
    INDEX 01 01:01:54
  TRACK 37 AUDIO
    TITLE "0:"
    INDEX 01 01:04:60
  TRACK 38 AUDIO
    TITLE "2:cjc039_3219"
    INDEX 01 01:06:30
  TRACK 39 AUDIO
    TITLE "0:"
    INDEX 01 01:07:29
  TRACK 40 AUDIO
    TITLE "3:cjc039_3220"
    INDEX 01 01:08:09
  TRACK 41 AUDIO
    TITLE "0:"
    INDEX 01 01:11:15
  TRACK 42 AUDIO
    TITLE "2:cjc039_3221"
    INDEX 01 01:12:70
  TRACK 43 AUDIO
    TITLE "0:"
    INDEX 01 01:14:06
  TRACK 44 AUDIO
    TITLE "3:cjc039_3222"
    INDEX 01 01:14:57
  TRACK 45 AUDIO
    TITLE "0:"
    INDEX 01 01:18:33
  TRACK 46 AUDIO
    TITLE "2:cjc039_3223"
    INDEX 01 01:20:06
  TRACK 47 AUDIO
    TITLE "0:"
    INDEX 01 01:21:14
  TRACK 48 AUDIO
    TITLE "3:cjc039_3224"
    INDEX 01 01:21:63
  TRACK 49 AUDIO
    TITLE "0:"
    INDEX 01 01:25:62
  TRACK 50 AUDIO
    TITLE "2:cjc039_3225"
    INDEX 01 01:27:38
  TRACK 51 AUDIO
    TITLE "0:"
    INDEX 01 01:28:51
  TRACK 52 AUDIO
    TITLE "3:cjc039_3226"
    INDEX 01 01:29:33
  TRACK 53 AUDIO
    TITLE "0:"
    INDEX 01 01:32:33
  TRACK 54 AUDIO
    TITLE "2:cjc039_3227"
    INDEX 01 01:34:10
  TRACK 55 AUDIO
    TITLE "0:"
    INDEX 01 01:35:57
  TRACK 56 AUDIO
    TITLE "3:cjc039_3228"
    INDEX 01 01:36:29
  TRACK 57 AUDIO
    TITLE "0:"
    INDEX 01 01:39:70
  TRACK 58 AUDIO
    TITLE "2:cjc039_3229"
    INDEX 01 01:41:44
  TRACK 59 AUDIO
    TITLE "0:"
    INDEX 01 01:42:41
  TRACK 60 AUDIO
    TITLE "3:cjc039_3230"
    INDEX 01 01:43:19
  TRACK 61 AUDIO
    TITLE "0:"
    INDEX 01 01:46:45
  TRACK 62 AUDIO
    TITLE "2:cjc039_3231"
    INDEX 01 01:48:18
  TRACK 63 AUDIO
    TITLE "0:"
    INDEX 01 01:49:37
  TRACK 64 AUDIO
    TITLE "3:cjc039_3232"
    INDEX 01 01:50:13
  TRACK 65 AUDIO
    TITLE "0:"
    INDEX 01 01:53:12
  TRACK 66 AUDIO
    TITLE "2:cjc039_3233"
    INDEX 01 01:54:64
  TRACK 67 AUDIO
    TITLE "0:"
    INDEX 01 01:56:06
  TRACK 68 AUDIO
    TITLE "3:cjc039_3234"
    INDEX 01 01:56:59
  TRACK 69 AUDIO
    TITLE "0:"
    INDEX 01 02:00:00
  TRACK 70 AUDIO
    TITLE "2:cjc039_3235"
    INDEX 01 02:01:48
  TRACK 71 AUDIO
    TITLE "0:"
    INDEX 01 02:02:66
  TRACK 72 AUDIO
    TITLE "3:cjc039_3236"
    INDEX 01 02:03:39
  TRACK 73 AUDIO
    TITLE "0:"
    INDEX 01 02:07:18
  TRACK 74 AUDIO
    TITLE "2:cjc039_3237"
    INDEX 01 02:08:68
  TRACK 75 AUDIO
    TITLE "0:"
    INDEX 01 02:10:04
  TRACK 76 AUDIO
    TITLE "3:cjc039_3238"
    INDEX 01 02:10:53
  TRACK 77 AUDIO
    TITLE "0:"
    INDEX 01 02:13:48
  TRACK 78 AUDIO
    TITLE "2:cjc039_3239"
    INDEX 01 02:15:21
  TRACK 79 AUDIO
    TITLE "0:"
    INDEX 01 02:18:51
  TRACK 80 AUDIO
    TITLE "3:cjc039_3240"
    INDEX 01 02:19:23
  TRACK 81 AUDIO
    TITLE "0:"
    INDEX 01 02:22:66
